<svg width="472" height="103" viewBox="0 0 472 103" fill="none" xmlns="http://www.w3.org/2000/svg">
<path d="M35.2599 100.011C32.5599 98.3807 30.2499 96.9806 30.1499 96.9206C30.0499 96.8606 29.6699 96.6206 29.3099 96.4306C28.6899 96.0706 23.5899 92.9906 19.2399 90.3406C18.1099 89.6506 16.2499 88.5406 15.0999 87.8606C12.4899 86.2906 11.4499 85.3807 10.7999 84.0807C10.5499 83.5607 10.2799 82.8406 10.2199 82.4506C10.0599 81.6506 10.0399 70.7506 10.1899 70.8206C10.2399 70.8506 14.1499 73.0706 18.8899 75.7806C23.6299 78.4706 27.8399 80.8307 28.2699 81.0107C28.8999 81.2707 29.2699 81.3206 30.2799 81.3206C32.1799 81.3206 33.3599 80.8706 34.6899 79.6406C35.7399 78.6706 36.1899 78.0507 38.3399 74.6207C39.3199 73.0507 40.1899 71.7207 40.2599 71.6607C40.3199 71.5807 40.3799 77.6606 40.3799 87.2806C40.3799 95.9406 40.3399 103.031 40.2899 103.031C40.2299 103.021 37.9699 101.681 35.2699 100.041L35.2599 100.011Z" fill="white"/>
<path d="M44.98 85.4814C44.99 66.8614 44.97 67.4314 45.61 66.3214C46.27 65.1914 44.83 66.0414 68.81 52.7114C74.39 49.6214 78.97 47.0914 78.98 47.1214C79.01 47.1514 79.43 47.8414 79.92 48.6614C80.42 49.4814 81.77 51.6914 82.92 53.5614C85.37 57.5514 85.52 57.8314 85.52 58.3614C85.52 58.9414 85.07 59.7314 84.48 60.1614C84.21 60.3514 82 61.6514 79.58 63.0214L75.18 65.5314L75.14 74.2114L75.1 82.9114L74.54 84.0114C73.82 85.4514 73.17 86.0414 70.96 87.3914C67.58 89.4214 54.68 97.2114 50.06 100.011C47.54 101.541 45.35 102.831 45.21 102.881C44.95 102.981 44.95 102.931 44.96 85.4914L44.98 85.4814Z" fill="white"/>
<path d="M28.6 75.8709C28.28 75.7509 25.96 74.5009 23.45 73.0609C20.94 71.6409 18.68 70.3409 18.4 70.1909C17.31 69.5809 16.59 69.1709 15.79 68.7109C14.19 67.7809 6.01 63.1709 3.63 61.8509C2.31 61.1309 1.05 60.3909 0.83 60.2209C0.34 59.8609 0 59.1809 0 58.5609C0 57.9409 0.23 57.5009 3.05 52.8309C4.38 50.6409 5.66 48.5209 5.9 48.1309C6.66 46.8509 6.53 46.9009 7.57 47.5009C8.07 47.8009 10.31 49.0709 12.55 50.3309C16.39 52.5009 17.71 53.2409 23.55 56.5709C30.02 60.2309 37.9 64.6809 38.28 64.8809C38.5 65.0009 38.69 65.1409 38.69 65.2009C38.69 65.3009 37.73 66.9109 35.78 70.0709C34.55 72.0809 34.46 72.2209 34.23 72.6609C33.39 74.2809 32.08 75.6409 31.06 75.9509C30.4 76.1409 29.3 76.1209 28.6 75.8709Z" fill="white"/>
<path d="M40.8907 60.54C39.9307 59.98 38.8807 59.39 38.5607 59.22C38.2407 59.04 36.7507 58.21 35.2607 57.38C33.7607 56.54 30.8607 54.91 28.7907 53.76C26.7307 52.61 23.5907 50.85 21.8007 49.85C18.7107 48.12 14.2707 45.64 13.6707 45.32C13.5107 45.24 12.3607 44.6 11.1207 43.88L8.86071 42.6L8.82071 22.3C8.79071 0.990002 8.77071 1.69 9.35071 0.850001C9.87071 0.100001 11.3607 -0.239999 12.3407 0.180001C12.5707 0.280001 14.4007 1.63 16.3807 3.2C27.5007 11.91 29.3507 13.33 29.5707 13.33C29.6707 13.33 30.4207 13.14 31.2307 12.89C34.8707 11.79 38.2707 11.26 42.2607 11.17C46.4907 11.07 50.1807 11.58 54.1407 12.81C55.5507 13.24 55.9907 13.33 56.2107 13.22C56.3707 13.16 57.6307 12.2 59.0207 11.11C60.4007 10.01 62.4207 8.43 63.4807 7.6C64.5507 6.77 66.5307 5.21 67.8807 4.14C71.9007 0.940001 72.6907 0.360001 73.2107 0.170001C74.5607 -0.309999 75.8407 0.200001 76.5207 1.48L76.8007 2L76.8407 22.28L76.8707 42.54L76.4607 42.8C76.2307 42.94 73.8207 44.28 71.1207 45.78C68.4207 47.27 61.0707 51.34 54.7907 54.84C48.5007 58.33 43.2107 61.28 43.0107 61.37C42.6607 61.54 42.5707 61.5 40.9007 60.54H40.8907ZM39.4707 52.79C40.7407 52.36 41.5907 51.92 42.2307 51.41C42.4407 51.24 42.6807 51.11 42.7707 51.11C42.8707 51.11 43.3907 51.41 43.9107 51.76C46.5107 53.52 49.7707 53.8 52.7907 52.51C54.2007 51.91 54.8107 51.53 55.9207 50.49C57.1107 49.4 57.4607 48.86 57.4607 48.15C57.4607 47.14 56.8907 46.49 55.8207 46.27C55.1507 46.11 54.4007 46.54 53.4507 47.6C52.4707 48.7 51.3307 49.33 49.8907 49.57C49.1307 49.69 48.8407 49.69 48.1407 49.51C46.3307 49.04 44.9007 47.8 44.9007 46.69C44.9007 46.33 45.0907 46.09 46.4507 44.77C47.3007 43.95 48.1207 43.11 48.2607 42.89C48.6007 42.37 48.6007 41.49 48.2607 40.95C47.7707 40.15 47.5707 40.12 42.8607 40.03C38.8207 39.95 38.5907 39.97 38.1607 40.21C37.5007 40.57 37.1207 41.19 37.1207 41.92C37.1207 42.77 37.6907 43.56 39.0907 44.68C40.3307 45.65 40.6207 46.05 40.6207 46.78C40.6207 47.44 40.3407 47.92 39.6207 48.44C38.1707 49.49 37.2107 49.75 35.7607 49.5C34.1907 49.23 33.2207 48.7 32.0107 47.44C30.8707 46.26 30.4407 46.07 29.5107 46.31C28.8807 46.49 28.2007 47.19 28.1107 47.76C28.0107 48.38 28.2807 48.96 29.0807 49.84C30.0007 50.85 31.0507 51.61 32.4807 52.31C34.0307 53.07 35.1107 53.31 36.8507 53.25C37.9807 53.22 38.4207 53.15 39.4407 52.78L39.4707 52.79ZM30.2007 37.67C31.1607 37.2 31.7307 36.61 32.2107 35.59C32.4907 34.99 32.5507 34.7 32.5507 33.78C32.5507 32.86 32.5007 32.58 32.1707 31.9C31.7207 30.99 30.9107 30.18 30.0607 29.75C29.5407 29.49 29.2407 29.44 28.2107 29.44C27.1207 29.44 26.9007 29.48 26.3207 29.79C25.4407 30.26 24.4607 31.36 24.1307 32.24C22.7807 35.97 26.6407 39.43 30.2007 37.67ZM59.0607 37.81C59.8907 37.43 60.8607 36.48 61.2207 35.67C61.6607 34.7 61.6607 32.81 61.2207 31.93C60.7707 31.01 59.9907 30.2 59.1607 29.79C58.5107 29.48 58.2707 29.43 57.2607 29.43C55.8807 29.43 55.1507 29.71 54.2207 30.66C52.6707 32.2 52.4907 34.61 53.7807 36.38C54.9207 37.97 57.2607 38.59 59.0607 37.8V37.81Z" fill="#A0FF00"/>
<path d="M417.43 86.0795L426.24 40.7695H438.64L435.39 57.5295H455.74L458.99 40.7695H471.39L462.58 86.0795H450.18L453.51 68.9795H433.16L429.83 86.0795H417.43Z" fill="#A0FF00"/>
<path d="M368.49 63.34C369.74 56.9 373.08 51.4 378.49 46.84C383.96 42.28 390 40 396.62 40C403.24 40 408.13 42.02 411.33 46.07C414.58 50.06 416.2 54.25 416.2 58.64C416.2 60.18 416.03 61.75 415.69 63.34C414.38 69.84 410.99 75.37 405.52 79.93C400.11 84.49 394.09 86.77 387.48 86.77C380.87 86.77 376.02 84.78 372.77 80.78C369.58 76.73 367.98 72.49 367.98 68.04C367.98 66.56 368.15 64.99 368.49 63.34ZM381.99 71.89C383.76 74.28 386.32 75.48 389.69 75.48C393.06 75.48 396.1 74.28 398.84 71.89C401.58 69.5 403.26 66.65 403.88 63.34C404.05 62.48 404.14 61.66 404.14 60.86C404.14 58.52 403.34 56.36 401.75 54.36C400.21 52.31 397.76 51.28 394.4 51.28C391.04 51.28 387.99 52.48 385.25 54.87C382.57 57.21 381.03 59.43 380.63 61.54C380.23 63.59 380.03 65.02 380.03 65.81C380.03 68.09 380.68 70.11 382 71.88L381.99 71.89Z" fill="#A0FF00"/>
<path d="M326.52 40.7695L321.65 65.9095C321.31 67.5595 321 68.7895 320.71 69.5895C320.48 70.3295 320.03 71.2995 319.34 72.4995C318.66 73.6995 317.63 74.5195 316.26 74.9795C314.95 75.4395 313.3 75.5795 311.3 75.4095L304.53 75.3895L311.26 40.7895H298.86L298.09 44.6395C295.3 41.5595 291.45 40.0195 286.55 40.0195C280.39 40.0195 274.66 42.2995 269.36 46.8595C264.12 51.3595 260.87 56.8895 259.61 63.4495C259.27 65.0995 259.1 66.6995 259.1 68.2395C259.1 72.5695 260.61 76.7595 263.63 80.8095C266.71 84.7995 271.3 86.7895 277.4 86.7895C282.25 86.7895 286.72 85.3095 290.82 82.3395L290.05 86.0995H298.94V86.1395H311.71V86.1195C314.73 86.0795 317.43 85.7095 319.77 84.9895C322.79 84.0195 325.21 82.5695 327.04 80.6295C328.92 78.6395 330.4 76.4695 331.49 74.1295C332.57 71.7895 333.43 69.0895 334.06 66.0095L336.71 52.3295H351.33L344.75 86.0995H357.06L365.87 40.7895H326.54L326.52 40.7695ZM295.35 63.4295C294.72 66.6795 292.96 69.5295 290.05 71.9795C287.2 74.3695 284.12 75.5695 280.82 75.5695C277.52 75.5695 274.78 74.3695 272.95 71.9795C271.58 70.2095 270.9 68.1895 270.9 65.9095C270.9 65.1095 271.1 63.6895 271.5 61.6395C271.9 59.5295 273.47 57.2795 276.2 54.8895C278.99 52.4395 282.1 51.2095 285.52 51.2095C288.94 51.2095 291.33 52.2895 293.04 54.4595C294.75 56.5695 295.6 58.7895 295.6 61.1295C295.6 61.8695 295.51 62.6395 295.34 63.4395L295.35 63.4295Z" fill="white"/>
<path d="M162.67 40.7695H147.36L127.7 58.8995L131.2 40.7695H118.81L110 86.0795H122.4L125.9 67.8695L138.73 86.0795H154.2L138.22 63.3395L162.67 40.7695Z" fill="white"/>
<path d="M217.97 40.77H197.91L197.14 44.62C194.35 41.54 190.5 40 185.6 40C179.44 40 173.72 42.28 168.42 46.84C163.18 51.34 159.93 56.87 158.67 63.43C158.33 65.08 158.16 66.68 158.16 68.22C158.16 72.55 159.67 76.74 162.69 80.79C165.77 84.78 170.36 86.77 176.46 86.77C181.31 86.77 185.78 85.29 189.88 82.32L189.11 86.08H201.51L208.12 52.05H230.88L224.3 86.08H236.7L243.28 52.05H257.9L260.12 40.76H217.97V40.77ZM194.41 63.43C193.78 66.68 192.02 69.53 189.11 71.98C186.26 74.37 183.18 75.57 179.88 75.57C176.58 75.57 173.84 74.37 172.01 71.98C170.64 70.21 169.96 68.19 169.96 65.91C169.96 65.11 170.16 63.69 170.56 61.64C170.96 59.53 172.53 57.28 175.26 54.89C178.05 52.44 181.16 51.21 184.58 51.21C188 51.21 190.39 52.29 192.1 54.46C193.81 56.57 194.67 58.79 194.67 61.13C194.67 61.87 194.58 62.64 194.41 63.44V63.43Z" fill="white"/>
</svg>
