<svg width="642" height="150" viewBox="0 0 642 150" fill="none" xmlns="http://www.w3.org/2000/svg">
<path d="M51.3535 145.646C47.415 143.272 44.0606 141.237 43.9098 141.143C43.7591 141.048 43.2126 140.709 42.6849 140.426C41.7804 139.899 34.3555 135.414 28.0237 131.551C26.3842 130.552 23.6705 128.931 21.9933 127.932C18.1867 125.652 16.6791 124.314 15.7369 122.43C15.3788 121.676 14.9831 120.621 14.8888 120.055C14.6627 118.887 14.625 103.019 14.8511 103.114C14.9265 103.151 20.6177 106.393 27.5149 110.331C34.4121 114.251 40.5555 117.681 41.1773 117.945C42.1007 118.321 42.6284 118.397 44.0983 118.397C46.8685 118.397 48.5833 117.737 50.5244 115.947C52.0508 114.534 52.7104 113.629 55.8386 108.635C57.2708 106.355 58.5334 104.414 58.6276 104.32C58.7218 104.207 58.7972 113.064 58.7972 127.065C58.7972 139.673 58.7407 150 58.6653 150C58.5711 149.981 55.2921 148.04 51.3535 145.646Z" fill="white"/>
<path d="M65.5072 124.485C65.5261 97.3678 65.4884 98.197 66.4306 96.5763C67.3917 94.9368 65.2999 96.1617 100.219 76.7516C108.341 72.2477 115.013 68.5729 115.031 68.6106C115.069 68.6483 115.691 69.6659 116.407 70.8532C117.142 72.0404 119.102 75.2629 120.779 77.9954C124.341 83.7996 124.567 84.2141 124.567 84.9868C124.567 85.8348 123.907 86.9843 123.059 87.6062C122.664 87.8889 119.441 89.7734 115.917 91.7709L109.51 95.4268L109.453 108.072L109.397 120.735L108.586 122.337C107.531 124.429 106.589 125.296 103.366 127.256C98.4479 130.214 79.6597 141.559 72.9321 145.629C69.2574 147.853 66.0726 149.738 65.8653 149.813C65.4884 149.964 65.4884 149.888 65.5072 124.485Z" fill="white"/>
<path d="M41.647 110.484C41.1759 110.314 37.8027 108.486 34.1468 106.395C30.4909 104.322 27.193 102.437 26.7973 102.211C25.2143 101.325 24.159 100.722 22.9907 100.063C20.6539 98.7059 8.74399 91.9972 5.27654 90.075C3.35437 89.0197 1.52643 87.9455 1.20607 87.7006C0.489965 87.1729 0 86.193 0 85.2884C0 84.365 0.339206 83.7431 4.44737 76.9402C6.38839 73.7554 8.25402 70.6649 8.59323 70.0995C9.70507 68.2339 9.51663 68.3093 11.0242 69.1761C11.7592 69.6095 15.0193 71.4563 18.2795 73.3031C23.8764 76.4691 25.7985 77.5432 34.2975 82.3863C43.7199 87.7194 55.1964 94.202 55.7429 94.4847C56.0633 94.6543 56.346 94.8616 56.346 94.9558C56.346 95.1066 54.9514 97.4433 52.1059 102.041C50.3156 104.962 50.1837 105.17 49.8445 105.81C48.6196 108.166 46.7163 110.145 45.2275 110.597C44.2664 110.88 42.6646 110.842 41.647 110.484Z" fill="white"/>
<path d="M59.5509 88.1719C58.1563 87.3616 56.6299 86.4947 56.1588 86.2498C55.6877 85.9859 53.5205 84.7799 51.3534 83.5738C49.1674 82.3489 44.9461 79.9744 41.931 78.2972C38.9346 76.6201 34.3554 74.0572 31.7548 72.6061C27.2509 70.0809 20.7871 66.4816 19.9202 66.0104C19.6941 65.8974 18.0169 64.9551 16.2078 63.9187L12.91 62.053L12.8534 32.4855C12.8158 1.44813 12.7781 2.46575 13.6261 1.24084C14.3799 0.147841 16.547 -0.342124 17.9792 0.260909C18.3184 0.411668 20.9755 2.37153 23.8588 4.65175C40.0465 17.3343 42.7413 19.4072 43.0617 19.4072C43.2124 19.4072 44.3054 19.1246 45.4738 18.7665C50.7692 17.1647 55.7254 16.3921 61.5296 16.2601C67.6918 16.1094 73.0626 16.8632 78.8291 18.6534C80.8832 19.2753 81.5239 19.4072 81.8443 19.2565C82.0704 19.1622 83.9172 17.7677 85.9336 16.1848C87.95 14.583 90.8898 12.2839 92.435 11.0778C93.9992 9.87176 96.8824 7.59154 98.8423 6.04626C104.703 1.3916 105.853 0.543581 106.606 0.260909C108.566 -0.436348 110.432 0.298599 111.431 2.16423L111.845 2.91803L111.902 32.4478L111.939 61.9588L111.336 62.3357C110.997 62.543 107.492 64.484 103.553 66.67C99.6149 68.8372 88.9111 74.7733 79.7713 79.8614C70.6128 84.9495 62.9052 89.2461 62.6226 89.378C62.1138 89.623 61.9818 89.5664 59.5509 88.1719ZM57.4779 76.8839C59.3247 76.262 60.5685 75.6213 61.4919 74.8675C61.7934 74.6225 62.1514 74.4341 62.2834 74.4341C62.4341 74.4341 63.1879 74.8675 63.9417 75.3763C67.7295 77.9392 72.4784 78.3538 76.8692 76.4693C78.9233 75.6024 79.809 75.0371 81.4297 73.5295C83.1634 71.9465 83.6722 71.1551 83.6722 70.1186C83.6722 68.6487 82.843 67.7065 81.2789 67.3861C80.299 67.16 79.206 67.7819 77.8303 69.3271C76.3981 70.9289 74.7398 71.8523 72.648 72.1915C71.5361 72.3611 71.1216 72.3611 70.1039 72.0973C67.4657 71.4189 65.3927 69.6098 65.3927 67.9891C65.3927 67.4615 65.6754 67.1223 67.6541 65.2001C68.8979 64.0129 70.0851 62.788 70.2924 62.4676C70.7824 61.7138 70.7824 60.4324 70.2924 59.6409C69.5763 58.4725 69.2936 58.4348 62.4341 58.3029C56.5545 58.1898 56.2153 58.2087 55.5934 58.5667C54.6324 59.0944 54.0859 59.9989 54.0859 61.0543C54.0859 62.298 54.915 63.4475 56.9503 65.0682C58.7594 66.4816 59.174 67.0658 59.174 68.1211C59.174 69.0821 58.7594 69.7794 57.7229 70.5332C55.6123 72.0596 54.2178 72.4365 52.1072 72.0785C49.8269 71.6827 48.4136 70.9101 46.6422 69.0821C44.9838 67.3673 44.3619 67.0846 43.0051 67.4426C42.0817 67.7065 41.1018 68.7241 40.9699 69.5533C40.8191 70.4578 41.2149 71.3058 42.3832 72.5873C43.7212 74.0572 45.2477 75.169 47.3394 76.1866C49.6008 77.2985 51.1649 77.6377 53.709 77.5623C55.3485 77.5246 55.9892 77.4115 57.4779 76.8839ZM43.9851 54.8543C45.3796 54.1759 46.2087 53.309 46.906 51.8203C47.3206 50.9534 47.396 50.52 47.396 49.182C47.396 47.7875 47.3206 47.4295 46.8495 46.4495C46.1899 45.1304 45.0215 43.9432 43.7778 43.3213C43.024 42.9444 42.5905 42.869 41.083 42.869C39.5 42.869 39.1796 42.9255 38.3316 43.3778C37.0502 44.0562 35.618 45.658 35.1468 46.9395C33.187 52.3668 38.8027 57.4172 43.9851 54.8543ZM86.009 55.0616C87.215 54.5151 88.6284 53.1206 89.156 51.9522C89.7968 50.5389 89.7968 47.7875 89.156 46.5061C88.4965 45.1681 87.3658 43.9809 86.1597 43.3967C85.2175 42.9444 84.8594 42.869 83.3895 42.869C81.3731 42.869 80.3178 43.2836 78.961 44.6593C76.6996 46.9018 76.4358 50.4069 78.3203 52.9887C79.9786 55.3066 83.3895 56.2111 86.009 55.0616Z" fill="#A0FF00"/>
<path d="M579.235 58.5151H598.091L596.791 64.8871C603.033 59.8589 609.968 57.3447 617.597 57.3447C625.4 57.3447 631.338 59.5554 635.413 63.9768C639.487 68.3115 641.525 73.2531 641.525 78.8015C641.525 80.6221 641.308 82.5727 640.874 84.6533L632.552 127.437H613.696L621.108 89.4648C621.368 88.2511 621.498 87.0808 621.498 85.9537C621.498 83.1795 620.588 80.6654 618.768 78.4114C616.947 76.0706 614.129 74.9003 610.315 74.9003C605.72 74.9003 601.689 76.5474 598.221 79.8418C594.753 83.0495 592.543 87.0374 591.589 91.8056L584.697 127.437H565.841L579.235 58.5151Z" fill="#A0FF00"/>
<path d="M492.163 92.8459C494.07 83.1362 499.142 74.8136 507.378 67.878C515.7 60.8558 524.76 57.3447 534.556 57.3447C544.266 57.3447 551.592 60.4224 556.533 66.5776C561.475 72.6462 563.946 79.0182 563.946 85.6936C563.946 88.0344 563.686 90.4185 563.165 92.8459C561.258 102.642 556.143 111.052 547.821 118.074C539.498 125.009 530.438 128.477 520.642 128.477C510.932 128.477 503.607 125.443 498.665 119.374C493.81 113.219 491.383 106.76 491.383 99.9981C491.383 97.6574 491.643 95.2733 492.163 92.8459ZM512.449 105.85C515.137 109.491 518.995 111.312 524.023 111.312C529.051 111.312 533.646 109.491 537.807 105.85C542.055 102.209 544.483 98.8278 545.09 95.7068C545.697 92.4991 546 90.2884 546 89.0747C546 85.607 544.786 82.3126 542.359 79.1916C539.931 76.0706 536.204 74.5101 531.175 74.5101C526.147 74.5101 521.552 76.3307 517.391 79.9718C513.23 83.5263 510.846 86.9074 510.239 90.115C509.632 93.236 509.328 95.4034 509.328 96.6171C509.328 100.085 510.369 103.162 512.449 105.85Z" fill="#A0FF00"/>
<path d="M455.87 127.437L473.556 36.4082H492.412L474.726 127.437H455.87Z" fill="white"/>
<path d="M377.117 92.9759C379.024 83.0061 383.966 74.5968 391.942 67.748C400.004 60.8125 408.717 57.3447 418.08 57.3447C425.536 57.3447 431.388 59.6855 435.636 64.3669L436.806 58.5151H455.662L442.268 127.437H423.412L424.582 121.715C418.34 126.223 411.535 128.477 404.166 128.477C394.889 128.477 387.911 125.443 383.229 119.374C378.634 113.219 376.337 106.847 376.337 100.258C376.337 97.9175 376.597 95.4901 377.117 92.9759ZM397.404 105.98C400.178 109.621 404.166 111.442 409.367 111.442C414.396 111.442 419.077 109.621 423.412 105.98C427.833 102.252 430.521 97.9175 431.474 92.9759C431.734 91.7622 431.864 90.5919 431.864 89.4648C431.864 85.9104 430.564 82.5293 427.963 79.3216C425.362 76.0273 421.548 74.3801 416.52 74.3801C411.318 74.3801 406.593 76.244 402.345 79.9718C398.184 83.613 395.8 87.0374 395.193 90.2451C394.586 93.3661 394.283 95.5334 394.283 96.7471C394.283 100.215 395.323 103.293 397.404 105.98Z" fill="white"/>
<path d="M322.959 74.7692L326.08 58.5141H337.784L340.775 43.4293L360.411 38.0977L356.379 58.5141H376.276L373.155 74.7692H353.259L347.537 104.288C347.45 104.722 347.407 105.112 347.407 105.459C347.407 106.759 347.927 107.973 348.967 109.1C350.094 110.14 351.481 110.747 353.128 110.921C354.862 111.007 355.903 111.051 356.249 111.051C359.11 111.051 362.838 110.227 367.433 108.58L363.922 126.786C358.547 128.086 353.649 128.736 349.227 128.736C347.32 128.736 344.502 128.476 340.775 127.956C337.133 127.436 334.099 125.398 331.672 121.844C329.331 118.29 328.161 114.475 328.161 110.4C328.161 108.58 328.377 106.586 328.811 104.419L334.663 74.7692H322.959Z" fill="white"/>
<path d="M236.533 92.9759C238.44 83.0061 243.382 74.5968 251.358 67.748C259.42 60.8125 268.133 57.3447 277.496 57.3447C284.952 57.3447 290.804 59.6855 295.052 64.3669L296.222 58.5151H315.078L301.684 127.437H282.828L283.998 121.715C277.756 126.223 270.951 128.477 263.582 128.477C254.305 128.477 247.327 125.443 242.645 119.374C238.05 113.219 235.753 106.847 235.753 100.258C235.753 97.9175 236.013 95.4901 236.533 92.9759ZM256.82 105.98C259.594 109.621 263.582 111.442 268.783 111.442C273.812 111.442 278.493 109.621 282.828 105.98C287.249 102.252 289.937 97.9175 290.89 92.9759C291.15 91.7622 291.28 90.5919 291.28 89.4648C291.28 85.9104 289.98 82.5293 287.379 79.3216C284.778 76.0273 280.964 74.3801 275.936 74.3801C270.734 74.3801 266.009 76.244 261.761 79.9718C257.6 83.613 255.216 87.0374 254.609 90.2451C254.002 93.3661 253.699 95.5334 253.699 96.7471C253.699 100.215 254.739 103.293 256.82 105.98Z" fill="white"/>
<path d="M160.975 92.9759C162.882 83.0928 167.997 74.6835 176.319 67.748C184.642 60.8125 193.658 57.3447 203.368 57.3447C210.737 57.3447 216.936 59.4254 221.964 63.5867C227.079 67.748 230.286 73.2097 231.587 79.9718L213.511 84.9134C212.731 81.7057 211.17 79.1483 208.83 77.241C206.489 75.247 203.585 74.2501 200.117 74.2501C195.089 74.2501 190.451 76.114 186.203 79.8418C182.041 83.5696 179.657 87.0374 179.05 90.2451C178.443 93.3661 178.14 95.5334 178.14 96.7471C178.14 100.215 179.31 103.553 181.651 106.76C184.079 109.968 187.806 111.572 192.835 111.572C196.389 111.572 199.683 110.618 202.718 108.711C205.752 106.804 208.266 104.246 210.26 101.038L226.515 105.98C222.614 112.655 217.282 118.074 210.52 122.235C203.845 126.396 196.823 128.477 189.454 128.477C179.57 128.477 172.201 125.443 167.347 119.374C162.578 113.306 160.194 106.934 160.194 100.258C160.194 97.9175 160.454 95.4901 160.975 92.9759Z" fill="white"/>
<path d="M296.528 58.3545H338.185L335.134 75.2869H305.333L295.851 58.3545H296.528Z" fill="white"/>
</svg>
