<?xml version="1.0" encoding="UTF-8"?>
<svg id="_Слой_1" data-name="Слой_1" xmlns="http://www.w3.org/2000/svg" version="1.1" viewBox="0 0 472 103">
  <!-- Generator: Adobe Illustrator 29.6.0, SVG Export Plug-In . SVG Version: 2.1.1 Build 207)  -->
  <defs>
    <style>
      .st0 {
        fill: #fff;
      }

      .st1 {
        fill: #a0ff00;
      }
    </style>
  </defs>
  <path class="st0" d="M35.26,100.01c-2.7-1.63-5.01-3.03-5.11-3.09-.1-.06-.48-.3-.84-.49-.62-.36-5.72-3.44-10.07-6.09-1.13-.69-2.99-1.8-4.14-2.48-2.61-1.57-3.65-2.48-4.3-3.78-.25-.52-.52-1.24-.58-1.63-.16-.8-.18-11.7-.03-11.63.05.03,3.96,2.25,8.7,4.96,4.74,2.69,8.95,5.05,9.38,5.23.63.26,1,.31,2.01.31,1.9,0,3.08-.45,4.41-1.68,1.05-.97,1.5-1.59,3.65-5.02.98-1.57,1.85-2.9,1.92-2.96.06-.08.12,6,.12,15.62,0,8.66-.04,15.75-.09,15.75-.06-.01-2.32-1.35-5.02-2.99Z"/>
  <path class="st0" d="M44.98,85.48c.01-18.62-.01-18.05.63-19.16.66-1.13-.78-.28,23.2-13.61,5.58-3.09,10.16-5.62,10.17-5.59.03.03.45.72.94,1.54.5.82,1.85,3.03,3,4.9,2.45,3.99,2.6,4.27,2.6,4.8,0,.58-.45,1.37-1.04,1.8-.27.19-2.48,1.49-4.9,2.86l-4.4,2.51-.04,8.68-.04,8.7-.56,1.1c-.72,1.44-1.37,2.03-3.58,3.38-3.38,2.03-16.28,9.82-20.9,12.62-2.52,1.53-4.71,2.82-4.85,2.87-.26.1-.26.05-.25-17.39Z"/>
  <path class="st0" d="M28.6,75.87c-.32-.12-2.64-1.37-5.15-2.81-2.51-1.42-4.77-2.72-5.05-2.87-1.09-.61-1.81-1.02-2.61-1.48-1.6-.93-9.78-5.54-12.16-6.86-1.32-.72-2.58-1.46-2.8-1.63-.49-.36-.83-1.04-.83-1.66s.23-1.06,3.05-5.73c1.33-2.19,2.61-4.31,2.85-4.7.76-1.28.63-1.23,1.67-.63.5.3,2.74,1.57,4.98,2.83,3.84,2.17,5.16,2.91,11,6.24,6.47,3.66,14.35,8.11,14.73,8.31.22.12.41.26.41.32,0,.1-.96,1.71-2.91,4.87-1.23,2.01-1.32,2.15-1.55,2.59-.84,1.62-2.15,2.98-3.17,3.29-.66.19-1.76.17-2.46-.08Z"/>
  <path class="st1" d="M40.89,60.54c-.96-.56-2.01-1.15-2.33-1.32-.32-.18-1.81-1.01-3.3-1.84-1.5-.84-4.4-2.47-6.47-3.62-2.06-1.15-5.2-2.91-6.99-3.91-3.09-1.73-7.53-4.21-8.13-4.53-.16-.08-1.31-.72-2.55-1.44l-2.26-1.28-.04-20.3c-.03-21.31-.05-20.61.53-21.45.52-.75,2.01-1.09,2.99-.67.23.1,2.06,1.45,4.04,3.02,11.12,8.71,12.97,10.13,13.19,10.13.1,0,.85-.19,1.66-.44,3.64-1.1,7.04-1.63,11.03-1.72,4.23-.1,7.92.41,11.88,1.64,1.41.43,1.85.52,2.07.41.16-.06,1.42-1.02,2.81-2.11,1.38-1.1,3.4-2.68,4.46-3.51,1.07-.83,3.05-2.39,4.4-3.46,4.02-3.2,4.81-3.78,5.33-3.97,1.35-.48,2.63.03,3.31,1.31l.28.52.04,20.28.03,20.26-.41.26c-.23.14-2.64,1.48-5.34,2.98-2.7,1.49-10.05,5.56-16.33,9.06-6.29,3.49-11.58,6.44-11.78,6.53-.35.17-.44.13-2.11-.83ZM39.47,52.79c1.27-.43,2.12-.87,2.76-1.38.21-.17.45-.3.54-.3.1,0,.62.3,1.14.65,2.6,1.76,5.86,2.04,8.88.75,1.41-.6,2.02-.98,3.13-2.02,1.19-1.09,1.54-1.63,1.54-2.34,0-1.01-.57-1.66-1.64-1.88-.67-.16-1.42.27-2.37,1.33-.98,1.1-2.12,1.73-3.56,1.97-.76.12-1.05.12-1.75-.06-1.81-.47-3.24-1.71-3.24-2.82,0-.36.19-.6,1.55-1.92.85-.82,1.67-1.66,1.81-1.88.34-.52.34-1.4,0-1.94-.49-.8-.69-.83-5.4-.92-4.04-.08-4.27-.06-4.7.18-.66.36-1.04.98-1.04,1.71,0,.85.57,1.64,1.97,2.76,1.24.97,1.53,1.37,1.53,2.1,0,.66-.28,1.14-1,1.66-1.45,1.05-2.41,1.31-3.86,1.06-1.57-.27-2.54-.8-3.75-2.06-1.14-1.18-1.57-1.37-2.5-1.13-.63.18-1.31.88-1.4,1.45-.1.62.17,1.2.97,2.08.92,1.01,1.97,1.77,3.4,2.47,1.55.76,2.63,1,4.37.94,1.13-.03,1.57-.1,2.59-.47ZM30.2,37.67c.96-.47,1.53-1.06,2.01-2.08.28-.6.34-.89.34-1.81s-.05-1.2-.38-1.88c-.45-.91-1.26-1.72-2.11-2.15-.52-.26-.82-.31-1.85-.31-1.09,0-1.31.04-1.89.35-.88.47-1.86,1.57-2.19,2.45-1.35,3.73,2.51,7.19,6.07,5.43ZM59.06,37.81c.83-.38,1.8-1.33,2.16-2.14.44-.97.44-2.86,0-3.74-.45-.92-1.23-1.73-2.06-2.14-.65-.31-.89-.36-1.9-.36-1.38,0-2.11.28-3.04,1.23-1.55,1.54-1.73,3.95-.44,5.72,1.14,1.59,3.48,2.21,5.28,1.42Z"/>
  <path class="st1" d="M417.43,86.08l8.81-45.31h12.4l-3.25,16.76h20.35l3.25-16.76h12.4l-8.81,45.31h-12.4l3.33-17.1h-20.35l-3.33,17.1h-12.4Z"/>
  <path class="st1" d="M368.49,63.34c1.25-6.44,4.59-11.94,10-16.5,5.47-4.56,11.51-6.84,18.13-6.84s11.51,2.02,14.71,6.07c3.25,3.99,4.87,8.18,4.87,12.57,0,1.54-.17,3.11-.51,4.7-1.31,6.5-4.7,12.03-10.17,16.59-5.41,4.56-11.43,6.84-18.04,6.84s-11.46-1.99-14.71-5.99c-3.19-4.05-4.79-8.29-4.79-12.74,0-1.48.17-3.05.51-4.7ZM381.99,71.89c1.77,2.39,4.33,3.59,7.7,3.59s6.41-1.2,9.15-3.59c2.74-2.39,4.42-5.24,5.04-8.55.17-.86.26-1.68.26-2.48,0-2.34-.8-4.5-2.39-6.5-1.54-2.05-3.99-3.08-7.35-3.08s-6.41,1.2-9.15,3.59c-2.68,2.34-4.22,4.56-4.62,6.67-.4,2.05-.6,3.48-.6,4.27,0,2.28.65,4.3,1.97,6.07Z"/>
  <g>
    <path class="st0" d="M326.52,40.77l-4.87,25.14c-.34,1.65-.65,2.88-.94,3.68-.23.74-.68,1.71-1.37,2.91-.68,1.2-1.71,2.02-3.08,2.48-1.31.46-2.96.6-4.96.43l-6.77-.02,6.73-34.6h-12.4l-.77,3.85c-2.79-3.08-6.64-4.62-11.54-4.62-6.16,0-11.89,2.28-17.19,6.84-5.24,4.5-8.49,10.03-9.75,16.59-.34,1.65-.51,3.25-.51,4.79,0,4.33,1.51,8.52,4.53,12.57,3.08,3.99,7.67,5.98,13.77,5.98,4.85,0,9.32-1.48,13.42-4.45l-.77,3.76h8.89v.04s12.77,0,12.77,0v-.02c3.02-.04,5.72-.41,8.06-1.13,3.02-.97,5.44-2.42,7.27-4.36,1.88-1.99,3.36-4.16,4.45-6.5,1.08-2.34,1.94-5.04,2.57-8.12l2.65-13.68h14.62l-6.58,33.77h12.31l8.81-45.31h-39.33ZM295.35,63.43c-.63,3.25-2.39,6.1-5.3,8.55-2.85,2.39-5.93,3.59-9.23,3.59s-6.04-1.2-7.87-3.59c-1.37-1.77-2.05-3.79-2.05-6.07,0-.8.2-2.22.6-4.27.4-2.11,1.97-4.36,4.7-6.75,2.79-2.45,5.9-3.68,9.32-3.68s5.81,1.08,7.52,3.25c1.71,2.11,2.56,4.33,2.56,6.67,0,.74-.09,1.51-.26,2.31Z"/>
    <polygon class="st0" points="162.67 40.77 147.36 40.77 127.7 58.9 131.2 40.77 118.81 40.77 110 86.08 122.4 86.08 125.9 67.87 138.73 86.08 154.2 86.08 138.22 63.34 162.67 40.77"/>
    <path class="st0" d="M217.97,40.77h-20.06l-.77,3.85c-2.79-3.08-6.64-4.62-11.54-4.62-6.16,0-11.88,2.28-17.18,6.84-5.24,4.5-8.49,10.03-9.75,16.59-.34,1.65-.51,3.25-.51,4.79,0,4.33,1.51,8.52,4.53,12.57,3.08,3.99,7.67,5.98,13.77,5.98,4.85,0,9.32-1.48,13.42-4.45l-.77,3.76h12.4l6.61-34.03h22.76l-6.58,34.03h12.4l6.58-34.03h14.62l2.22-11.29h-42.15ZM194.41,63.43c-.63,3.25-2.39,6.1-5.3,8.55-2.85,2.39-5.93,3.59-9.23,3.59s-6.04-1.2-7.87-3.59c-1.37-1.77-2.05-3.79-2.05-6.07,0-.8.2-2.22.6-4.27.4-2.11,1.97-4.36,4.7-6.75,2.79-2.45,5.9-3.68,9.32-3.68s5.81,1.08,7.52,3.25c1.71,2.11,2.57,4.33,2.57,6.67,0,.74-.09,1.51-.26,2.31Z"/>
  </g>
</svg>